<svg xmlns="http://www.w3.org/2000/svg" viewBox="0 0 44 18" shape-rendering="crispEdges" role="img" aria-label="Quarks Quacks">
<rect x="6" y="2" width="3" height="1" fill="#0a2f44"/>
<rect x="5" y="3" width="1" height="1" fill="#0a2f44"/>
<rect x="9" y="3" width="1" height="1" fill="#0a2f44"/>
<rect x="5" y="4" width="1" height="1" fill="#0a2f44"/>
<rect x="9" y="4" width="1" height="1" fill="#0a2f44"/>
<rect x="5" y="5" width="1" height="1" fill="#0a2f44"/>
<rect x="9" y="5" width="1" height="1" fill="#0a2f44"/>
<rect x="5" y="6" width="1" height="1" fill="#0a2f44"/>
<rect x="7" y="6" width="1" height="1" fill="#0a2f44"/>
<rect x="9" y="6" width="1" height="1" fill="#0a2f44"/>
<rect x="5" y="7" width="1" height="1" fill="#0a2f44"/>
<rect x="8" y="7" width="1" height="1" fill="#0a2f44"/>
<rect x="6" y="8" width="2" height="1" fill="#0a2f44"/>
<rect x="9" y="8" width="1" height="1" fill="#0a2f44"/>
<rect x="11" y="2" width="1" height="1" fill="#0a2f44"/>
<rect x="15" y="2" width="1" height="1" fill="#0a2f44"/>
<rect x="11" y="3" width="1" height="1" fill="#0a2f44"/>
<rect x="15" y="3" width="1" height="1" fill="#0a2f44"/>
<rect x="11" y="4" width="1" height="1" fill="#0a2f44"/>
<rect x="15" y="4" width="1" height="1" fill="#0a2f44"/>
<rect x="11" y="5" width="1" height="1" fill="#0a2f44"/>
<rect x="15" y="5" width="1" height="1" fill="#0a2f44"/>
<rect x="11" y="6" width="1" height="1" fill="#0a2f44"/>
<rect x="15" y="6" width="1" height="1" fill="#0a2f44"/>
<rect x="11" y="7" width="1" height="1" fill="#0a2f44"/>
<rect x="15" y="7" width="1" height="1" fill="#0a2f44"/>
<rect x="12" y="8" width="3" height="1" fill="#0a2f44"/>
<rect x="18" y="2" width="3" height="1" fill="#0a2f44"/>
<rect x="17" y="3" width="1" height="1" fill="#0a2f44"/>
<rect x="21" y="3" width="1" height="1" fill="#0a2f44"/>
<rect x="17" y="4" width="1" height="1" fill="#0a2f44"/>
<rect x="21" y="4" width="1" height="1" fill="#0a2f44"/>
<rect x="17" y="5" width="5" height="1" fill="#0a2f44"/>
<rect x="17" y="6" width="1" height="1" fill="#0a2f44"/>
<rect x="21" y="6" width="1" height="1" fill="#0a2f44"/>
<rect x="17" y="7" width="1" height="1" fill="#0a2f44"/>
<rect x="21" y="7" width="1" height="1" fill="#0a2f44"/>
<rect x="17" y="8" width="1" height="1" fill="#0a2f44"/>
<rect x="21" y="8" width="1" height="1" fill="#0a2f44"/>
<rect x="23" y="2" width="4" height="1" fill="#0a2f44"/>
<rect x="23" y="3" width="1" height="1" fill="#0a2f44"/>
<rect x="27" y="3" width="1" height="1" fill="#0a2f44"/>
<rect x="23" y="4" width="1" height="1" fill="#0a2f44"/>
<rect x="27" y="4" width="1" height="1" fill="#0a2f44"/>
<rect x="23" y="5" width="4" height="1" fill="#0a2f44"/>
<rect x="23" y="6" width="1" height="1" fill="#0a2f44"/>
<rect x="25" y="6" width="1" height="1" fill="#0a2f44"/>
<rect x="23" y="7" width="1" height="1" fill="#0a2f44"/>
<rect x="26" y="7" width="1" height="1" fill="#0a2f44"/>
<rect x="23" y="8" width="1" height="1" fill="#0a2f44"/>
<rect x="27" y="8" width="1" height="1" fill="#0a2f44"/>
<rect x="29" y="2" width="1" height="1" fill="#0a2f44"/>
<rect x="33" y="2" width="1" height="1" fill="#0a2f44"/>
<rect x="29" y="3" width="1" height="1" fill="#0a2f44"/>
<rect x="32" y="3" width="1" height="1" fill="#0a2f44"/>
<rect x="29" y="4" width="1" height="1" fill="#0a2f44"/>
<rect x="31" y="4" width="1" height="1" fill="#0a2f44"/>
<rect x="29" y="5" width="2" height="1" fill="#0a2f44"/>
<rect x="29" y="6" width="1" height="1" fill="#0a2f44"/>
<rect x="31" y="6" width="1" height="1" fill="#0a2f44"/>
<rect x="29" y="7" width="1" height="1" fill="#0a2f44"/>
<rect x="32" y="7" width="1" height="1" fill="#0a2f44"/>
<rect x="29" y="8" width="1" height="1" fill="#0a2f44"/>
<rect x="33" y="8" width="1" height="1" fill="#0a2f44"/>
<rect x="36" y="2" width="4" height="1" fill="#0a2f44"/>
<rect x="35" y="3" width="1" height="1" fill="#0a2f44"/>
<rect x="35" y="4" width="1" height="1" fill="#0a2f44"/>
<rect x="36" y="5" width="3" height="1" fill="#0a2f44"/>
<rect x="39" y="6" width="1" height="1" fill="#0a2f44"/>
<rect x="39" y="7" width="1" height="1" fill="#0a2f44"/>
<rect x="35" y="8" width="4" height="1" fill="#0a2f44"/>
<rect x="6" y="11" width="3" height="1" fill="#0a2f44"/>
<rect x="5" y="12" width="1" height="1" fill="#0a2f44"/>
<rect x="9" y="12" width="1" height="1" fill="#0a2f44"/>
<rect x="5" y="13" width="1" height="1" fill="#0a2f44"/>
<rect x="9" y="13" width="1" height="1" fill="#0a2f44"/>
<rect x="5" y="14" width="1" height="1" fill="#0a2f44"/>
<rect x="9" y="14" width="1" height="1" fill="#0a2f44"/>
<rect x="5" y="15" width="1" height="1" fill="#0a2f44"/>
<rect x="7" y="15" width="1" height="1" fill="#0a2f44"/>
<rect x="9" y="15" width="1" height="1" fill="#0a2f44"/>
<rect x="5" y="16" width="1" height="1" fill="#0a2f44"/>
<rect x="8" y="16" width="1" height="1" fill="#0a2f44"/>
<rect x="6" y="17" width="2" height="1" fill="#0a2f44"/>
<rect x="9" y="17" width="1" height="1" fill="#0a2f44"/>
<rect x="11" y="11" width="1" height="1" fill="#0a2f44"/>
<rect x="15" y="11" width="1" height="1" fill="#0a2f44"/>
<rect x="11" y="12" width="1" height="1" fill="#0a2f44"/>
<rect x="15" y="12" width="1" height="1" fill="#0a2f44"/>
<rect x="11" y="13" width="1" height="1" fill="#0a2f44"/>
<rect x="15" y="13" width="1" height="1" fill="#0a2f44"/>
<rect x="11" y="14" width="1" height="1" fill="#0a2f44"/>
<rect x="15" y="14" width="1" height="1" fill="#0a2f44"/>
<rect x="11" y="15" width="1" height="1" fill="#0a2f44"/>
<rect x="15" y="15" width="1" height="1" fill="#0a2f44"/>
<rect x="11" y="16" width="1" height="1" fill="#0a2f44"/>
<rect x="15" y="16" width="1" height="1" fill="#0a2f44"/>
<rect x="12" y="17" width="3" height="1" fill="#0a2f44"/>
<rect x="18" y="11" width="3" height="1" fill="#0a2f44"/>
<rect x="17" y="12" width="1" height="1" fill="#0a2f44"/>
<rect x="21" y="12" width="1" height="1" fill="#0a2f44"/>
<rect x="17" y="13" width="1" height="1" fill="#0a2f44"/>
<rect x="21" y="13" width="1" height="1" fill="#0a2f44"/>
<rect x="17" y="14" width="5" height="1" fill="#0a2f44"/>
<rect x="17" y="15" width="1" height="1" fill="#0a2f44"/>
<rect x="21" y="15" width="1" height="1" fill="#0a2f44"/>
<rect x="17" y="16" width="1" height="1" fill="#0a2f44"/>
<rect x="21" y="16" width="1" height="1" fill="#0a2f44"/>
<rect x="17" y="17" width="1" height="1" fill="#0a2f44"/>
<rect x="21" y="17" width="1" height="1" fill="#0a2f44"/>
<rect x="24" y="11" width="4" height="1" fill="#0a2f44"/>
<rect x="23" y="12" width="1" height="1" fill="#0a2f44"/>
<rect x="23" y="13" width="1" height="1" fill="#0a2f44"/>
<rect x="23" y="14" width="1" height="1" fill="#0a2f44"/>
<rect x="23" y="15" width="1" height="1" fill="#0a2f44"/>
<rect x="23" y="16" width="1" height="1" fill="#0a2f44"/>
<rect x="24" y="17" width="4" height="1" fill="#0a2f44"/>
<rect x="29" y="11" width="1" height="1" fill="#0a2f44"/>
<rect x="33" y="11" width="1" height="1" fill="#0a2f44"/>
<rect x="29" y="12" width="1" height="1" fill="#0a2f44"/>
<rect x="32" y="12" width="1" height="1" fill="#0a2f44"/>
<rect x="29" y="13" width="1" height="1" fill="#0a2f44"/>
<rect x="31" y="13" width="1" height="1" fill="#0a2f44"/>
<rect x="29" y="14" width="2" height="1" fill="#0a2f44"/>
<rect x="29" y="15" width="1" height="1" fill="#0a2f44"/>
<rect x="31" y="15" width="1" height="1" fill="#0a2f44"/>
<rect x="29" y="16" width="1" height="1" fill="#0a2f44"/>
<rect x="32" y="16" width="1" height="1" fill="#0a2f44"/>
<rect x="29" y="17" width="1" height="1" fill="#0a2f44"/>
<rect x="33" y="17" width="1" height="1" fill="#0a2f44"/>
<rect x="36" y="11" width="4" height="1" fill="#0a2f44"/>
<rect x="35" y="12" width="1" height="1" fill="#0a2f44"/>
<rect x="35" y="13" width="1" height="1" fill="#0a2f44"/>
<rect x="36" y="14" width="3" height="1" fill="#0a2f44"/>
<rect x="39" y="15" width="1" height="1" fill="#0a2f44"/>
<rect x="39" y="16" width="1" height="1" fill="#0a2f44"/>
<rect x="35" y="17" width="4" height="1" fill="#0a2f44"/>
<rect x="5" y="1" width="3" height="1" fill="#f7fcff"/>
<rect x="4" y="2" width="1" height="1" fill="#f7fcff"/>
<rect x="8" y="2" width="1" height="1" fill="#f7fcff"/>
<rect x="4" y="3" width="1" height="1" fill="#f7fcff"/>
<rect x="8" y="3" width="1" height="1" fill="#f7fcff"/>
<rect x="4" y="4" width="1" height="1" fill="#f7fcff"/>
<rect x="8" y="4" width="1" height="1" fill="#f7fcff"/>
<rect x="4" y="5" width="1" height="1" fill="#f7fcff"/>
<rect x="6" y="5" width="1" height="1" fill="#f7fcff"/>
<rect x="8" y="5" width="1" height="1" fill="#f7fcff"/>
<rect x="4" y="6" width="1" height="1" fill="#f7fcff"/>
<rect x="7" y="6" width="1" height="1" fill="#f7fcff"/>
<rect x="5" y="7" width="2" height="1" fill="#f7fcff"/>
<rect x="8" y="7" width="1" height="1" fill="#f7fcff"/>
<rect x="10" y="1" width="1" height="1" fill="#f7fcff"/>
<rect x="14" y="1" width="1" height="1" fill="#f7fcff"/>
<rect x="10" y="2" width="1" height="1" fill="#f7fcff"/>
<rect x="14" y="2" width="1" height="1" fill="#f7fcff"/>
<rect x="10" y="3" width="1" height="1" fill="#f7fcff"/>
<rect x="14" y="3" width="1" height="1" fill="#f7fcff"/>
<rect x="10" y="4" width="1" height="1" fill="#f7fcff"/>
<rect x="14" y="4" width="1" height="1" fill="#f7fcff"/>
<rect x="10" y="5" width="1" height="1" fill="#f7fcff"/>
<rect x="14" y="5" width="1" height="1" fill="#f7fcff"/>
<rect x="10" y="6" width="1" height="1" fill="#f7fcff"/>
<rect x="14" y="6" width="1" height="1" fill="#f7fcff"/>
<rect x="11" y="7" width="3" height="1" fill="#f7fcff"/>
<rect x="17" y="1" width="3" height="1" fill="#f7fcff"/>
<rect x="16" y="2" width="1" height="1" fill="#f7fcff"/>
<rect x="20" y="2" width="1" height="1" fill="#f7fcff"/>
<rect x="16" y="3" width="1" height="1" fill="#f7fcff"/>
<rect x="20" y="3" width="1" height="1" fill="#f7fcff"/>
<rect x="16" y="4" width="5" height="1" fill="#f7fcff"/>
<rect x="16" y="5" width="1" height="1" fill="#f7fcff"/>
<rect x="20" y="5" width="1" height="1" fill="#f7fcff"/>
<rect x="16" y="6" width="1" height="1" fill="#f7fcff"/>
<rect x="20" y="6" width="1" height="1" fill="#f7fcff"/>
<rect x="16" y="7" width="1" height="1" fill="#f7fcff"/>
<rect x="20" y="7" width="1" height="1" fill="#f7fcff"/>
<rect x="22" y="1" width="4" height="1" fill="#f7fcff"/>
<rect x="22" y="2" width="1" height="1" fill="#f7fcff"/>
<rect x="26" y="2" width="1" height="1" fill="#f7fcff"/>
<rect x="22" y="3" width="1" height="1" fill="#f7fcff"/>
<rect x="26" y="3" width="1" height="1" fill="#f7fcff"/>
<rect x="22" y="4" width="4" height="1" fill="#f7fcff"/>
<rect x="22" y="5" width="1" height="1" fill="#f7fcff"/>
<rect x="24" y="5" width="1" height="1" fill="#f7fcff"/>
<rect x="22" y="6" width="1" height="1" fill="#f7fcff"/>
<rect x="25" y="6" width="1" height="1" fill="#f7fcff"/>
<rect x="22" y="7" width="1" height="1" fill="#f7fcff"/>
<rect x="26" y="7" width="1" height="1" fill="#f7fcff"/>
<rect x="28" y="1" width="1" height="1" fill="#f7fcff"/>
<rect x="32" y="1" width="1" height="1" fill="#f7fcff"/>
<rect x="28" y="2" width="1" height="1" fill="#f7fcff"/>
<rect x="31" y="2" width="1" height="1" fill="#f7fcff"/>
<rect x="28" y="3" width="1" height="1" fill="#f7fcff"/>
<rect x="30" y="3" width="1" height="1" fill="#f7fcff"/>
<rect x="28" y="4" width="2" height="1" fill="#f7fcff"/>
<rect x="28" y="5" width="1" height="1" fill="#f7fcff"/>
<rect x="30" y="5" width="1" height="1" fill="#f7fcff"/>
<rect x="28" y="6" width="1" height="1" fill="#f7fcff"/>
<rect x="31" y="6" width="1" height="1" fill="#f7fcff"/>
<rect x="28" y="7" width="1" height="1" fill="#f7fcff"/>
<rect x="32" y="7" width="1" height="1" fill="#f7fcff"/>
<rect x="35" y="1" width="4" height="1" fill="#f7fcff"/>
<rect x="34" y="2" width="1" height="1" fill="#f7fcff"/>
<rect x="34" y="3" width="1" height="1" fill="#f7fcff"/>
<rect x="35" y="4" width="3" height="1" fill="#f7fcff"/>
<rect x="38" y="5" width="1" height="1" fill="#f7fcff"/>
<rect x="38" y="6" width="1" height="1" fill="#f7fcff"/>
<rect x="34" y="7" width="4" height="1" fill="#f7fcff"/>
<rect x="5" y="10" width="3" height="1" fill="#ffc93c"/>
<rect x="4" y="11" width="1" height="1" fill="#ffc93c"/>
<rect x="8" y="11" width="1" height="1" fill="#ffc93c"/>
<rect x="4" y="12" width="1" height="1" fill="#ffc93c"/>
<rect x="8" y="12" width="1" height="1" fill="#ffc93c"/>
<rect x="4" y="13" width="1" height="1" fill="#ffc93c"/>
<rect x="8" y="13" width="1" height="1" fill="#ffc93c"/>
<rect x="4" y="14" width="1" height="1" fill="#ffc93c"/>
<rect x="6" y="14" width="1" height="1" fill="#ffc93c"/>
<rect x="8" y="14" width="1" height="1" fill="#ffc93c"/>
<rect x="4" y="15" width="1" height="1" fill="#ffc93c"/>
<rect x="7" y="15" width="1" height="1" fill="#ffc93c"/>
<rect x="5" y="16" width="2" height="1" fill="#ffc93c"/>
<rect x="8" y="16" width="1" height="1" fill="#ffc93c"/>
<rect x="10" y="10" width="1" height="1" fill="#ffc93c"/>
<rect x="14" y="10" width="1" height="1" fill="#ffc93c"/>
<rect x="10" y="11" width="1" height="1" fill="#ffc93c"/>
<rect x="14" y="11" width="1" height="1" fill="#ffc93c"/>
<rect x="10" y="12" width="1" height="1" fill="#ffc93c"/>
<rect x="14" y="12" width="1" height="1" fill="#ffc93c"/>
<rect x="10" y="13" width="1" height="1" fill="#ffc93c"/>
<rect x="14" y="13" width="1" height="1" fill="#ffc93c"/>
<rect x="10" y="14" width="1" height="1" fill="#ffc93c"/>
<rect x="14" y="14" width="1" height="1" fill="#ffc93c"/>
<rect x="10" y="15" width="1" height="1" fill="#ffc93c"/>
<rect x="14" y="15" width="1" height="1" fill="#ffc93c"/>
<rect x="11" y="16" width="3" height="1" fill="#ffc93c"/>
<rect x="17" y="10" width="3" height="1" fill="#ffc93c"/>
<rect x="16" y="11" width="1" height="1" fill="#ffc93c"/>
<rect x="20" y="11" width="1" height="1" fill="#ffc93c"/>
<rect x="16" y="12" width="1" height="1" fill="#ffc93c"/>
<rect x="20" y="12" width="1" height="1" fill="#ffc93c"/>
<rect x="16" y="13" width="5" height="1" fill="#ffc93c"/>
<rect x="16" y="14" width="1" height="1" fill="#ffc93c"/>
<rect x="20" y="14" width="1" height="1" fill="#ffc93c"/>
<rect x="16" y="15" width="1" height="1" fill="#ffc93c"/>
<rect x="20" y="15" width="1" height="1" fill="#ffc93c"/>
<rect x="16" y="16" width="1" height="1" fill="#ffc93c"/>
<rect x="20" y="16" width="1" height="1" fill="#ffc93c"/>
<rect x="23" y="10" width="4" height="1" fill="#ffc93c"/>
<rect x="22" y="11" width="1" height="1" fill="#ffc93c"/>
<rect x="22" y="12" width="1" height="1" fill="#ffc93c"/>
<rect x="22" y="13" width="1" height="1" fill="#ffc93c"/>
<rect x="22" y="14" width="1" height="1" fill="#ffc93c"/>
<rect x="22" y="15" width="1" height="1" fill="#ffc93c"/>
<rect x="23" y="16" width="4" height="1" fill="#ffc93c"/>
<rect x="28" y="10" width="1" height="1" fill="#ffc93c"/>
<rect x="32" y="10" width="1" height="1" fill="#ffc93c"/>
<rect x="28" y="11" width="1" height="1" fill="#ffc93c"/>
<rect x="31" y="11" width="1" height="1" fill="#ffc93c"/>
<rect x="28" y="12" width="1" height="1" fill="#ffc93c"/>
<rect x="30" y="12" width="1" height="1" fill="#ffc93c"/>
<rect x="28" y="13" width="2" height="1" fill="#ffc93c"/>
<rect x="28" y="14" width="1" height="1" fill="#ffc93c"/>
<rect x="30" y="14" width="1" height="1" fill="#ffc93c"/>
<rect x="28" y="15" width="1" height="1" fill="#ffc93c"/>
<rect x="31" y="15" width="1" height="1" fill="#ffc93c"/>
<rect x="28" y="16" width="1" height="1" fill="#ffc93c"/>
<rect x="32" y="16" width="1" height="1" fill="#ffc93c"/>
<rect x="35" y="10" width="4" height="1" fill="#ffc93c"/>
<rect x="34" y="11" width="1" height="1" fill="#ffc93c"/>
<rect x="34" y="12" width="1" height="1" fill="#ffc93c"/>
<rect x="35" y="13" width="3" height="1" fill="#ffc93c"/>
<rect x="38" y="14" width="1" height="1" fill="#ffc93c"/>
<rect x="38" y="15" width="1" height="1" fill="#ffc93c"/>
<rect x="34" y="16" width="4" height="1" fill="#ffc93c"/>
</svg>